<?xml version="1.0" encoding="UTF-8"?>
<!DOCTYPE svg PUBLIC "-//W3C//DTD SVG 1.1//EN" "http://www.w3.org/Graphics/SVG/1.1/DTD/svg11.dtd">
<!-- Creator: CorelDRAW 2021 (64-Bit) -->
<svg xmlns="http://www.w3.org/2000/svg" xml:space="preserve" width="194px" height="166px" version="1.1" style="shape-rendering:geometricPrecision; text-rendering:geometricPrecision; image-rendering:optimizeQuality; fill-rule:evenodd; clip-rule:evenodd"
viewBox="0 0 64.6 55.3"
 xmlns:xlink="http://www.w3.org/1999/xlink"
 xmlns:xodm="http://www.corel.com/coreldraw/odm/2003">
 <defs>
  <style type="text/css">
   <![CDATA[
    .fil0 {fill:white}
   ]]>
  </style>
 </defs>
 <g id="Capa_x0020_1">
  <metadata id="CorelCorpID_0Corel-Layer"/>
  <path class="fil0" d="M18.6 42.2c0,-0.3 0.3,-0.5 0.5,-0.5l0.6 0.1c-0.9,0 -0.8,0.4 -1.1,0.4l0 0zm-12.2 -15l0.3 0c0,-0.2 0,-0.1 0.1,-0.1l0 -0.1c-0.1,-0.1 -0.1,-0.1 -0.3,-0.2 0,0 0,0 0,0l-0.1 -0.1c-0.1,-0.1 0,0.1 -0.1,0l-0.1 -0.2c-0.1,-0.1 -0.1,-0.1 -0.4,-0.1 0,0.3 0,0.2 0.1,0.3 0.1,0.1 0,0 0.1,0.1l0.4 0.4 0 0zm4 13.1l0 0.3c0.2,0.1 0,-0.1 0.1,0.1 0,0.1 0,0.1 0.1,0.1 0.1,0.2 0.3,0.4 0.3,0.6l0.4 0 -0.5 -1c0,0 0,0 0,0l-0.3 -0.2c-0.1,0.2 0.1,0.1 -0.1,0.1l0 0zm39.8 6.6l0 0.2c0.1,0.1 0.2,0.2 0.3,0.4l0.2 0c0,-0.1 0,-0.1 0.1,-0.2 0.1,-0.1 0.2,-0.2 0.3,-0.3l0 -0.2c-0.1,0 -0.1,-0.1 -0.2,-0.2l-0.3 0c0,0.1 0,0.1 -0.1,0.1 0,0 0,0.1 -0.1,0.1 0,0 0,0 0,0.1 -0.1,0 -0.1,0 -0.2,0l0 0zm-41.7 -19.9l0 0.1c0.4,0 0.3,0 0.3,0.1l0.2 0.5c0.1,0.1 0,0 0.1,0.1 0.1,0.1 0.2,0.1 0.3,0.1 0,0 0,0 0,0l0.4 -0.3c0,0 -0.1,0 -0.2,-0.1l-0.1 -0.6c0,-0.1 0,0 0,-0.1 -0.1,-0.1 0,0 -0.1,-0.2l-0.2 0c-0.1,0.2 0,0.1 -0.2,0.2 0,0 -0.1,0 -0.1,0l-0.2 0.1c0,0 -0.1,0 -0.1,0 0,0 0.1,0 -0.1,0.1l0 0zm19.5 -26.7l0 0.3c0.2,0.1 0.2,0.2 0.3,0.3l0.1 0c0.2,0.2 0.1,-0.1 0.2,0.2l0.1 0c0.1,-0.2 0,0 0.1,-0.2l0.1 -0.2c0.1,-0.1 0.2,-0.2 0.3,-0.3l0 -0.3c-0.5,0 0.3,-0.1 -0.9,-0.1 -0.1,0.1 -0.1,0.3 -0.3,0.3l0 0zm-18.3 22.5l0 0.1c0.1,0 0.1,0 0.1,0.1 0.1,0 0.3,0.2 0.3,0.3l0.3 0c0.1,-0.3 -0.2,0.2 0,-0.1 0.1,-0.2 0.2,-0.2 0.3,-0.2 0.3,-0.2 0.1,-0.2 0.3,-0.2l0 -0.5c0,0 -0.2,0 -0.2,-0.3l-0.1 0c-0.1,0.2 0,0 -0.1,0.1 0,0 -0.1,0 -0.1,0.1 -0.3,0.2 -0.4,0.4 -0.8,0.6l0 0zm46.6 -20l0 0.1c0.2,0.1 0.1,0 0.2,0.2l0.1 0.1c0,0 0,0 0,0 0.1,0.2 0.2,0.1 0.3,0.4l0.4 0c0,-0.2 0.2,-0.3 0.3,-0.4l0 -0.6c-0.2,-0.1 -0.2,-0.2 -0.5,-0.2 -0.3,0 0,0 -0.2,0 -0.2,0.1 -0.3,0.3 -0.6,0.4zm-5.7 2.2l0.5 0.3c0.1,-0.1 0,-0.1 0.2,-0.2l0.2 -0.2c-0.2,-0.1 -0.1,0 -0.2,-0.6l-0.1 -0.2c0,-0.1 0,-0.1 0,-0.1 0,-0.1 -0.1,-0.2 -0.1,-0.2 -0.1,-0.2 0,0.1 -0.1,-0.1l-0.4 0c-0.2,0.5 -0.2,0.1 -0.1,0.5 0,0.3 -0.1,0.1 0.1,0.6 0,0.1 0,0 0,0.2l0 0zm-32.3 42l0 0.3c0.1,0 0.1,0 0.1,0 0,0 0.2,0 0.3,0.2l0.4 0c0.1,-0.3 0.1,-0.2 0.3,-0.4l0 -0.1c0.1,-0.1 0.1,-0.1 0.2,-0.2l0.1 -0.1c0.2,-0.1 0.3,-0.1 0.4,-0.4 0.2,-0.2 -0.1,0 0.2,-0.1l0 -0.3c-0.1,-0.1 -0.2,-0.1 -0.2,-0.3l-0.3 0.2c0,0 0,0 0,0l-0.1 0.2c0,0 0,0 0,0l-0.3 0.3c0,0.1 -0.1,0.1 -0.1,0.2 -0.1,0.1 -0.1,0.1 -0.2,0.2l-0.4 0.2c0,0 -0.1,0 -0.1,0.1 0,0 0,0 0,0l-0.3 0 0 0zm5.4 -1.9l0.4 0.5 0.4 0c0,-0.1 0.1,-0.1 0.4,-0.1 0.2,0 0,0.1 0.4,0l0.3 -0.2 0 -0.2c-0.3,-0.1 0.1,0 -0.4,-0.5 -0.1,-0.1 0,0 -0.1,-0.2l-0.4 0c-0.1,0.2 0,0 -0.1,0.1l-0.1 0.1c-0.2,0.2 -0.2,0.3 -0.4,0.4l-0.4 0.1 0 0zm-12.5 -32.6l0 0.6 0.3 0.1c0.1,0.1 0.1,0 0.1,0.1 0.2,0 0.1,-0.1 0.2,0.1l0.2 0c0.1,-0.3 0.4,-0.1 0.6,-0.5 0,0 0,-0.1 0,-0.1 0,-0.1 0,-0.1 0,-0.2 0,-0.3 -0.2,-0.4 -0.3,-0.6l-0.5 0c-0.1,0.2 -0.2,0 -0.4,0.3 -0.2,0.3 0.1,0.1 -0.2,0.2l0 0zm37.7 22.9l1.4 0c0.1,-0.3 0,0 0.1,-0.2 0,-0.2 0,-0.4 -0.1,-0.6l-0.1 -0.3c0,0 0,-0.1 0,-0.1l-0.1 -0.3c-0.1,-0.4 0,-0.3 -0.2,-0.3l-0.4 -0.2c-0.1,0.4 -0.2,0.1 -0.3,0.6 0,0 0,0 0,0l-0.1 0.1c0,0 0,0.1 0,0.1l-0.2 0.5c0,0 0,0 0,0l-0.1 0.3c0,0.1 0,0 0,0.1 0,0.2 0.1,0 0.1,0.3l0 0zm-6.1 -12c0.2,0 0.1,0 0.2,0 0.3,0.1 0.8,0.2 1,0.1 0.2,0 0.1,-0.1 0.3,-0.1 0,-1.1 -0.5,-2.1 -0.5,-2.8 -0.4,0.8 -1,2 -1,2.8l0 0zm21.8 4.4l0 -2 -1.4 0.3c-0.3,0.3 -0.1,0 -0.4,0.6 0,0 0,0 0,0 -0.2,0.3 -0.1,0.4 -0.1,0.6l0.3 0.3c0,0.1 0,0.1 0.1,0.2 0.1,0.1 0.2,0.2 0.4,0.2 0.2,0.1 0.6,0.1 1,-0.1 0.1,-0.1 -0.1,0 0.1,-0.1l0 0zm-39.8 20.3l-0.3 0.1c-0.1,0 -0.1,0.1 -0.2,0.2 -0.1,0.3 0.2,-0.2 0,0.1 0,0 0,0.1 0,0.1l-0.1 0.1c0,0 0,-0.1 0,0.1 -0.1,0.4 0,0.8 0.1,1.2 0,0.1 -0.1,0.2 0.3,0.3 0.2,0.1 0.6,0.1 0.8,0l0.6 -0.8c0.1,-0.1 0.1,-0.2 0.1,-0.4l-0.1 -0.2c0,0 0,0 0,0 0,-0.1 0,-0.1 0,-0.2l-0.2 -0.3c-0.3,-0.3 -0.7,-0.5 -1,-0.3l0 0zm-21.2 -19.6l0 0.4c0.1,0 0.2,0.2 0.5,0.1 0.2,-0.1 0.2,-0.1 0.2,-0.2l0.2 0c0.1,0.1 0,0.1 0.1,0.1l0 0.3c-0.1,0 0,0 -0.1,0.1l-0.2 0.1c0,0 0,0 -0.1,0l0 0c-0.2,0.2 -0.2,0.3 -0.2,0.4 0,0 0,0 0,0 -0.1,0.1 -0.1,0.2 -0.1,0.4 0,0.2 -0.1,0 0.1,0.1l0 0.7 0.2 0c0.4,0.1 0.3,0 0.3,0.2l0.4 0c0,-0.5 0,0 0.1,-0.4 0,0 0,-0.3 0,-0.3 0,-0.1 0,0 0,-0.1 -0.1,-0.1 -0.1,0 -0.1,-0.1 0,-0.1 -0.1,-0.2 0,-0.4 0,-0.5 0.1,0 0.1,-0.4l0.1 0c0,0.4 0.1,-0.1 0.1,0.4l0.2 0c0.1,-0.3 0,0 0.1,-0.2l0.1 0c0.1,0.2 0.1,0.1 0.2,0.3l0.5 0 -0.2 -0.5c0,0 0,0 0,0l-0.8 -0.9 -0.3 -0.1c0,0 -0.1,0 -0.1,0 -0.7,-0.3 -1.2,0 -1.3,0l0 0zm50.2 17.9l0.3 0c0,-0.2 -0.1,0 0.2,-0.1 0.5,-0.2 0.3,-0.1 0.7,-0.4 0.2,-0.1 0.2,-0.3 0.5,-0.4l0 -0.8c-0.2,-0.1 -0.2,-0.2 -0.3,-0.4 -0.1,-0.3 -0.8,-0.5 -1,-0.5 -0.2,0.1 -0.3,0.1 -0.5,0.3l-0.2 0.2c-0.1,0.1 -0.3,0.3 -0.3,0.5l0 0.6 0.5 0.8c0,0.1 0,0.1 0,0.1 0.2,0.1 0.1,-0.1 0.1,0.1zm8.5 -27.5l-0.3 0.1c-0.2,0.1 -0.1,0.1 -0.2,0.2l-0.1 0.1c-0.3,0.3 -0.1,0.1 -0.2,0.5 -0.1,0.2 -0.2,0.4 -0.1,0.7 0,0 0,0 0.1,0 0,0.1 0,0.1 0,0.1l0.4 0.7c0,0 0.1,0.1 0.2,0.1 0.1,0.1 0.1,0.1 0.2,0.1 0.3,0.1 0.7,0.1 1,0.1 0.1,-0.1 0.3,-0.2 0.4,-0.3 0,0 0,-0.1 0,-0.1 0.1,0 0.1,0 0.1,-0.1l0.1 -0.2c0,0 0,0 0,0l0.1 -0.1c0,-0.1 0,-0.1 0.1,-0.1l0 -0.6 -0.3 -0.6c-0.1,-0.1 -0.1,0 -0.1,-0.1 0,0 0,0 0,0 -0.2,-0.2 -0.4,-0.3 -0.6,-0.4 -0.3,-0.1 -0.5,-0.2 -0.8,-0.1l0 0 0 0zm-34.9 18.8l0.6 0c0.1,-0.3 0.4,-0.4 0.6,-0.6 0,0 0,0 0,-0.1l0.1 -0.3c0,-0.1 0,-0.1 0,-0.1 0,0 0,0 0.1,0l0.4 -1.4c0,-0.1 0,0 0,-0.2 0.1,-0.8 0.1,-0.8 -0.1,-1.3l-0.1 -0.1c-0.1,-0.4 -0.6,-0.7 -1,-0.9 -0.4,-0.1 -0.5,-0.2 -0.9,0.1 0,0.1 0,0.1 -0.1,0.1 0,0 0,0 0,0l-0.2 0.3c0,0 0,0.1 0,0.1l-0.1 0.3c0,0.1 0,0.1 -0.1,0.2l-0.2 0.9c0,0 0,0.1 0,0.1 0,0.1 -0.1,0.1 0,0.4 0,0 0,0 0,0 0.1,0.3 0,0.2 0.1,0.7l0.3 1c0,0 0,0 0,0l0 0.1c0.1,0.3 0.3,0.4 0.5,0.5 0.1,0.1 0,-0.1 0.1,0.2l0 0zm-18.2 14.3c0,0.1 0,0 0,0.1l-0.1 0.1c0,0 0,0 0,0l-0.1 0.1 0 0.6c0.1,0 0.5,0.4 0.7,0.5l1.2 0.5c0.2,0.1 0.5,0.1 0.8,0l0.5 -0.3c0.1,-0.2 0.4,-0.4 0.5,-0.6l0.5 -0.7c0,0 0,0 0,0l0.1 -0.2c0.2,-0.1 0,0 0.2,-0.1l0 -0.4c-0.3,-0.1 0,0 -0.2,-0.1l0 -0.4c0.2,-0.1 0,0.1 0.1,-0.1l0.2 -0.3c0,0 0,-0.1 0,-0.1l1 -2.1c0,-0.2 0,-0.1 0.1,-0.4l0.1 -1c0.1,0 0,0 0.1,0 0,0 0,0 0,0l0.2 -0.1c0.4,-0.2 0.2,-0.3 0.4,-0.4l0 -0.2c-0.1,-0.1 0,0 -0.1,-0.1l-0.5 -0.5c-0.4,-0.3 -0.7,-0.6 -1.2,-0.1 -0.1,0.1 -0.1,0.1 -0.1,0.2l-0.5 1.3c-0.1,0.3 -0.6,0.7 -0.9,0.9l-0.1 0.1c0,0 0,0 0,0l-1.5 2c0,0 0,0 0,0 0,0.1 0,0 0,0.1l-0.1 0.1c0,0 0,0 0,0.1l-0.7 1c0,0 0,0 0,0l-0.6 0.5 0 0zm-9.1 -29.6l0 0.3c0.2,0 0.3,0.3 0.5,0.5l0.3 0.3c0.1,0.2 0.1,0.5 0,0.7 -0.1,0.4 0,0.7 0,1.1 -0.1,0.2 0,0.1 -0.1,0.2 -0.1,0.1 0,0 -0.2,0.1l-0.5 0.1c0,0.1 0,0 -0.1,0.1l0 0.2c0.1,0 0.1,0.1 0.1,0.2 0.1,0 0.1,0 0.1,0 0.1,0.2 0.1,0 0.1,0.2l1.2 0c0.1,0.2 0.3,0.2 0.5,0.2l1.6 0.3c0.1,0.1 0.3,0 0.4,0l0.1 0c0.2,-0.1 0.1,0 0.2,-0.1l0.9 0c0,-0.2 0,-0.1 0.1,-0.2 0,-0.1 0,0 0.1,-0.1 0.2,-0.2 0.4,-0.4 0.5,-0.6l0.1 -0.1c0.1,-0.2 0.4,-0.8 0.7,-0.9 0,0 0.1,0 0.2,0l0.4 -0.1 -0.1 1.2c0,0.2 0,0.3 0.1,0.3 0.1,0.2 0,0.1 0.2,0.1 0.1,0 0.1,0 0.2,0.1 0,0 0,0 0,0 0.4,0.1 0.9,0.1 1.3,-0.1 0,0 0,0 0,0l0.1 -0.1c0.1,0 0.1,0 0.1,0l0.2 -0.5c0,-0.1 0,-0.2 0,-0.3 0,-0.2 0.1,-0.1 0,-0.3l0 -0.2c0.1,0 0.1,-0.1 0.1,-0.1l0.2 -0.2c0.1,-0.1 0.1,0 0.2,-0.2 0.1,-0.1 0,-0.1 0.1,-0.1l0 -0.3 -0.2 -0.2c0,0 0,-0.1 0,-0.1 -0.1,0 -0.1,0 -0.1,-0.1l-0.2 0c-0.1,0.2 -0.2,0.2 -0.3,0.3l-0.8 0.4c0,0 0,0 0,0.1l-0.6 0.2c-0.1,0 0,0 -0.2,0 0,0 -0.1,0 -0.2,0 0,0 0.1,0 0.1,0 0,0 0,-0.1 0,-0.1l0 0c0,-0.1 0,-0.1 0,-0.1l0.3 -1.1c-0.2,0 -0.4,0 -0.6,0 -0.6,0 -0.4,0 -0.5,0.1l-0.4 0c-0.1,-0.2 -0.2,-0.1 -0.3,-0.5l-0.2 -0.4c0,0 0,0 0,-0.1l-0.3 -0.4c-0.2,-0.1 -0.3,-0.2 -0.6,-0.3l-0.1 -0.1c-0.2,0 -0.3,0 -0.5,0 -0.4,0 0,-0.1 -0.4,-0.1 0,-0.2 -0.1,-0.3 -0.3,-0.4 0,-0.1 0,0 0,-0.2l-1 0c-0.1,0.2 -0.1,0.1 -0.3,0.2l-0.3 0.1c0,0 0,0 0,0l-0.4 0.1c0,0 0,0 0,0 0,0 -0.1,0 -0.1,0l-0.7 0.6c-0.1,0 0,0 -0.1,0l-0.4 0.3c-0.1,0.1 0,0.1 -0.2,0.1l0 0zm31.6 9.1c0.2,-0.1 0.3,-0.4 0.3,-0.5l0.1 0c0.3,0.7 0.4,0.1 0.4,1.4 0,1.6 0.1,3.1 0.1,4.8 0,0.4 0.1,-0.1 0.1,0.3 0.4,0.1 0,0.1 0.5,0.2l1.5 -0.1c0.4,0.1 0.2,0 0.3,0.2l0.1 0.8c-0.2,0.1 -0.2,0.1 -0.3,0.2l-2.9 0c0,-0.1 -0.1,-0.1 -0.2,-0.2l0 -7.1 0 0zm-8 6.9l-0.6 0c0,-0.1 0,-0.1 -0.1,-0.1l0 -6.4c0.2,0 0,0 0.2,-0.1 0.2,-0.2 0.2,-0.1 0.2,-0.2l0.2 0c0,0.2 0.1,0.1 0.1,0.3l0 4c0,0.5 0.2,0.1 0.1,0.8l0 1.3c0,0.4 -0.1,0 -0.1,0.4l0 0zm23.4 0.7c0,-0.3 0,-0.6 0.1,-0.8l0.1 -0.4c0,-0.3 0.1,-0.7 0.2,-1 0,-0.3 -0.1,0.1 0,-0.1l0.2 -0.6c0.1,-0.4 -0.1,-0.2 0.1,-0.8 0,0 0,0 0,0l0.1 -0.4c0,0 0,0 0,0l0.3 -0.7c0,0 0,-0.1 0,-0.1l0.1 -0.2c0,0 0,0 0,0l0.1 -0.4c0,0 0,0 0,-0.1l0.4 -1c0,0 0,-0.1 0,-0.1l0.3 -0.4c0,0 0,-0.1 0,-0.1 0.1,-0.1 0.1,-0.1 0.2,-0.3 0.3,-0.1 0.1,0.2 0.2,-0.1l0.6 0c0,0.1 0.1,0.1 0.1,0.3l0.6 1.6c0,0.1 0,0.2 0,0.3 0,0 0,0 0.1,0l0.1 0.6c0,0 0,0 0,0 0.1,0.3 0,0.5 0.1,0.8 0.1,0.2 0,0.3 0.1,0.6 0.1,0.3 0,0.4 0,0.6 0.1,0.3 0.1,0.2 0.2,0.5 0,0.1 -0.1,0.1 0,0.2l0 0.2c0,0 0,-0.1 0.1,0.1 0,0.2 -0.1,0.3 0,0.5 0.1,0.5 0.1,1.3 0.1,1.8l-0.8 0c0,-1.3 0,-0.7 -0.1,-1.1 0,-0.1 0,-0.4 0,-0.5 0,-0.1 0,-0.2 0,-0.4l-0.2 -0.9c0,0 0,0 0,-0.1 -0.3,0 -0.8,-0.3 -1.7,0l-0.6 0.6c-0.1,0.4 -0.1,0.4 -0.2,0.9 0,0.1 0,0.3 -0.1,0.5l-0.5 0.4c-0.1,0.1 -0.2,0.1 -0.3,0.1l0 0zm-18.8 -0.5c-0.3,0.1 -0.7,0.2 -1,0.1 -0.9,-0.3 -0.9,-0.6 -1.3,-1.3 0,0 0,-0.1 0,-0.1 -0.5,-1.7 -0.5,-3 0.1,-4.6 0,0 0,-0.1 0,-0.1 0.1,-0.3 0.3,-0.6 0.5,-0.8l0.4 -0.3c0.1,0 0.1,0 0.1,0l0.2 -0.1c0.2,0 0.7,0 0.9,0l0.2 0.1c0.3,0.2 0.4,0.4 0.6,0.6 1.5,1.4 1.3,5.7 -0.7,6.5l0 0zm13.2 -6.9c0.6,0 -0.2,-0.1 1,-0.1l2.1 0c0.1,0 0.3,0 0.5,0 0.4,0 0.4,0 0.4,0.1 0.2,0.1 0.1,0 0.1,0.2l0 0.5c0,0.2 0.1,0.1 -0.1,0.2 0,0 0.1,0.1 -0.3,0.1l-0.8 0.1c-0.2,0.2 -0.1,0.1 -0.3,0.2l0 2.1c0.1,0 0.1,0 0.1,0.4l0 4.1 -0.7 0 0 -2.1c0,-0.7 0,-0.5 -0.1,-0.6l0 -4c-0.2,0 -0.2,-0.1 -0.2,-0.2l-1.2 0c-0.1,-0.1 -0.3,-0.3 -0.5,-0.3l0 -0.7 0 0zm-4.1 0.7l0 0.7c0.2,0.1 0.3,0.2 0.4,0.3l2 0.2c0.1,0.1 0.1,0.1 0.2,0.2l0 0.8c-0.1,0.1 0,0 -0.1,0.1l-0.3 0c-0.1,-0.1 0.1,-0.1 -0.2,-0.1 -0.3,0 0,0.1 -0.2,0.1 -0.2,0.1 -0.3,0 -0.5,0.1l-0.7 0c-0.4,0.1 -0.2,0 -0.2,0.2 -0.1,0 -0.2,-0.1 -0.2,0.3l0.1 1.4c0.1,0 0,0 0.1,0 0,0 0,0 0,0.1 0.4,0.2 0.2,0.1 1.1,0.1 0.8,0 0.1,-0.1 1.3,-0.1l0 0.2c0,0 0,0.1 0,0.1 0,0.1 -0.1,0 0,0l0 0.7c-0.4,0 0,0.1 -0.5,0.1 -0.7,0 -0.6,-0.1 -0.6,0.1l-2 0c0,-0.1 0,-0.1 -0.1,-0.2 0,0 0,0 -0.1,0l0 -4.8c-0.1,0 -0.1,0.1 -0.1,-0.4l0 -1.5c0.5,0 1,0 1.5,0 0,0 0.1,0 0.2,0 0.2,-0.1 0,-0.1 0.1,-0.1l0.3 0c0.7,-0.1 0.6,-0.1 0.7,0.1 0.1,0 0.1,0 0.1,0.1l0 0.9c-0.4,0 -0.7,0.1 -1.1,0.1 -0.5,-0.1 0,-0.2 -0.9,-0.2l-0.1 0.1c-0.1,0.2 0,0.2 -0.2,0.3l0 0zm-22 -3.9c0.5,0 0,-0.1 0.5,-0.1 0.5,0 0.1,0.1 0.5,0.1 0,0.2 0.1,0.2 0.1,0.4l0.3 0.8c0,0 0,0.1 0,0.1l0.2 0.8c0,0 0,0 0,0 0,0.1 0,0.1 0,0.1 0,0 0,0 0,0l0.1 0.2c0,0.1 0,0.1 0,0.1l0 0.1c0.1,0.2 0,0.3 0.1,0.5l0.9 3c0.1,-0.2 0,0.1 0.1,-0.1 0,0 0,0 0,0l0.3 -1c0,0 0,0 0,0 0,0 0,-0.1 0,-0.1l0.4 -1.5c0,-0.1 0,0 0,-0.1 0.1,-0.1 0.1,-0.1 0.1,-0.2l0.2 -0.8c0,-0.1 0,-0.1 0,-0.2l0.6 -2.1 0.7 0c0.1,0.2 0.2,-0.1 0.4,0.3l0.1 0.3c0.1,0.2 0,0.2 0,0.4l-0.4 0.9c0,0 0,0 0,0 0,0 0,0 0,0l-0.9 3.3c0,0 0,0 0,0l-0.3 1.3c-0.1,0 -0.1,0 -0.1,0l0 0.4c0,0 0,0 -0.1,0 0,0 0,0.1 0,0.1l-0.4 1.3c0,0 0,0 0,0.1l-0.2 0.5c-0.1,0.2 -0.3,0.2 -0.3,0.5l-0.2 0c0,0 0,0 -0.1,0.1 -0.1,0 -0.2,0 -0.3,0l-0.4 -1.1c0,0 0,0 0,0 0,-0.1 0,-0.1 0,-0.1l-0.4 -1.6c0,0 0,0 0,0l-0.1 -0.3c0,0 0,0 0,0 0,0 0,-0.1 0,-0.1l-0.2 -0.8c0,0 0,0 0,0 0,0 -0.1,0 -0.1,-0.1l0 -0.3c0,0 0,0 0,0l-0.2 -0.9c-0.1,0 -0.1,0 -0.1,0l-0.6 -2.6c0,0 0,0 0,0l-0.1 -0.4c-0.1,-0.2 0,-0.4 -0.1,-0.6 -0.1,-0.2 -0.1,0 0,-0.4 0,-0.1 0,-0.1 0,-0.2l0 0zm13 -9l0.2 -0.1c0.1,-0.1 0.1,-0.1 0.2,-0.1 0.1,-0.1 -0.1,0 0.1,-0.1 0.1,0.2 0.1,0.1 0.1,0.1 0.2,0.6 0.2,6.2 0.2,7.2 0,0.2 0.1,0.1 -0.1,0.1 0,0.2 0.1,0.1 -0.1,0.1 -0.3,0.1 -0.6,0 -0.6,-0.1l0 -7.1 0 0zm13.6 7.8c-0.2,0 -0.3,0.1 -0.4,0.2l-0.3 -0.1c-0.2,-0.4 0,-0.7 0,-1l0.2 -1.5c0.1,-0.3 0.1,0.1 0.1,-0.2 0.5,-2.1 0.6,-2.7 1.3,-4.5 0,0 0,-0.1 0,-0.1 0,0 0,0 0,0l0.3 -0.5c0,0 0,-0.1 0,-0.1l0.1 -0.1c0.1,-0.2 0.1,-0.1 0.2,-0.3l0.4 0c0.1,0.2 0.3,0.2 0.4,0.7 0.7,2.8 1.2,5.1 1.2,8.3l-0.2 0c-0.1,0.1 0,0 -0.1,0.2l-0.2 0c-0.1,-0.2 0,-0.1 -0.1,-0.2 0,0 0,0 0,0l-0.1 -0.6c-0.1,-0.3 -0.1,0 -0.1,-1 0,-0.1 0,-0.4 0,-0.5 0,0 -0.1,0 -0.1,0 0,0 0,-0.1 0,-0.1l0 -0.1c-0.1,-0.1 0,-0.3 0,-0.5l-0.2 -0.4c0,-0.2 0.1,-0.1 -0.1,-0.2 0,-0.2 0.2,-0.1 -0.2,-0.1l-0.9 0c-0.4,0 -0.7,0.2 -0.9,0.5 -0.1,0.2 -0.1,0.5 -0.1,0.8 -0.1,0.3 0,-0.1 -0.1,0.2 -0.1,0.2 0,0.4 -0.1,0.6l0 0.6 0 0zm-10.9 -7.7l0.3 0c0.1,0.3 0,0 0.1,0.2l0.3 0.7c0.1,0 0.1,0.1 0.1,0.1 0.3,0.7 0.7,1.5 1,2.2 0.1,0.1 0.2,0.2 0.2,0.3l0.1 0c0.1,-0.2 0.1,-0.1 0.1,-0.3 0.1,-0.4 0.1,-1 0,-1.3 -0.1,-0.2 -0.1,-1.2 -0.1,-1.4 0.1,-0.2 0,-0.1 0.1,-0.1l0.4 -0.2c0,0.2 0,0.1 0,0.2 0.1,0.1 0.1,0 0.2,0.1l0.5 6c-0.3,0 -0.1,0 -0.2,0.1l-0.5 0c0,-0.2 -0.2,-0.4 -0.3,-0.6l-0.6 -1.2c0,0 -0.1,0 -0.1,-0.1l-0.5 -0.9c0,0 0,0 0,0 0,0 0,-0.1 0,-0.1l-0.4 -0.3c0,0.8 -0.1,2.2 0.1,2.9 0.1,0.4 0,2 0,2.4 -0.4,0 -0.5,0.1 -0.6,-0.1 0,0 -0.5,-7.4 -0.5,-7.9 0,-0.4 0.2,-0.5 0.3,-0.7l0 0zm4.7 -0.2c0.1,0 0.1,0 0.2,-0.1 0,0 0,0 0,-0.1l3.7 0 0 1.3c-0.7,0 -0.5,0 -0.5,0.1l-0.7 0c0,0.1 -0.1,0.2 -0.2,0.2 0,2.4 0.1,4.6 0.1,6.9 0,0.1 0,0.2 0,0.2 -0.1,0.2 0,0.1 -0.1,0.1 -0.1,0.2 0,0.1 -0.1,0.2 -0.2,0 -0.3,-0.1 -0.5,-0.2l-0.2 -7.3c-0.1,0 0,0 -0.1,-0.1 -0.1,0 0,0 -0.1,-0.1l-1.3 0c0,-0.1 0,-0.2 -0.2,-0.2l0 -0.9 0 0zm-9.9 -2.6l-1.5 0c-0.1,0.2 -0.2,0.2 -0.3,0.2 0,3.6 0.1,7 0.1,10.6 0,0.3 0,0.2 -0.1,0.2 -0.1,0.2 0,0.1 -0.5,0.1 -0.4,0 -0.4,0.1 -0.4,-0.1l-0.1 -5 -0.2 -5.6c-0.1,-0.1 -0.1,-0.1 -0.1,-0.1l-0.3 -0.3 -1.9 0 0 -1.7c0.3,0 5,0 5.3,0 0.1,0.1 0,0.1 0.2,0.1l0 1.4c-0.1,0.1 -0.2,0.1 -0.2,0.2l0 0zm8.3 -3.1c0,-0.3 0,-0.1 0.2,-0.3 0.1,-0.3 -0.1,-0.1 0.2,-0.3 0.2,-0.2 0,0.1 0.1,-0.2l0.4 0 0.1 0.2c0,0.1 0.1,0.1 0.1,0.1 0,0 0,0 0.1,0.1l0 0.1c0,0 0,0 0,0l-0.8 0.2c0,0 0,0 0,0l-0.2 0.1c-0.1,0 -0.1,0 -0.2,0l0 0zm4 -0.9l-0.2 0c-0.1,-0.1 0.1,0 -0.2,-0.1 -0.1,0 -0.3,0 -0.4,0 0,-0.3 0.1,-0.2 0.1,-0.4l0.2 0c0,0.3 0,0 0.1,0.2l0.5 0c0,-0.1 0,-0.1 0.4,-0.1 0.4,0 0.3,0.1 0.5,0.1l0 0.1c-0.4,0 -0.3,0.1 -0.5,0.1 -0.7,0.1 -0.4,-0.1 -0.5,0.1l0 0zm-1.6 0.6c-0.2,-0.1 0,0 -0.2,-0.1 -0.1,-0.1 0.1,-0.1 -0.2,-0.1l0 -0.5c0.2,0 0.1,0.1 0.2,-0.2 0.2,-0.2 0.1,0 0.2,-0.2l0.2 0c0,0.3 0,0.2 0.1,0.2l-0.2 0.1c0,0.2 0,0.1 -0.1,0.2 -0.1,0.3 0,0.1 0,0.6l0 0zm-3.9 -1.1l0.4 0.3 0.5 0c0,-0.1 0.2,-0.2 0.4,-0.2 0.2,0.1 -0.1,0 0.2,0.1l0 0.1c-0.3,0.1 0,0.1 -0.2,0.1 -0.3,0.1 -0.6,-0.1 -0.7,0.1l-0.2 0c-0.1,-0.2 -0.2,-0.2 -0.4,-0.4 0,0 0,-0.1 0,-0.1l0 0zm2.4 -0.3l0.5 0c0,0.4 0,0.2 0.1,0.4 -0.1,0 0,0 -0.1,0.1l-0.1 0c0,-0.1 0,0 -0.1,-0.1 -0.2,-0.2 0,0 -0.2,-0.1l-0.1 -0.1c0,-0.1 0,-0.1 0,-0.1 0,-0.1 0,0 0,-0.1l0 0zm1 -1.4c0.1,0 0.1,0 0.1,0 0.2,-0.1 0.2,-0.1 0.3,-0.2l0.2 0 0.2 0.3c0,0.1 0,0 0,0.2l0.5 0c0.1,0.1 -0.1,0.1 0.3,0.1l0 0.1c-0.4,0.1 -0.1,0.1 -0.5,0.3 -0.2,0.1 -0.1,-0.1 -0.2,0.1l-0.2 0c-0.1,-0.3 -0.1,0.2 -0.2,-0.5 -0.1,-0.2 0,0 -0.1,-0.1 0,0 0,0 0,0l-0.1 -0.1c0,0 0,0 0,0 0,-0.1 -0.1,-0.1 -0.1,-0.1 -0.1,0 0,0 -0.2,0l0 -0.1 0 0zm-0.8 -0.1l0.3 0c0,0 0,0 0,0 0.3,0.1 0.4,0.1 0.4,0.3 -0.7,0 -0.3,0 -0.7,-0.1l0 -0.2 0 0zm-1.7 0.5c-0.4,0 -0.2,0 -0.3,0.1l-0.1 0c0,-0.3 0.1,-0.1 -0.1,-0.2l0 -0.2c0.2,-0.1 0.1,0.1 0.2,-0.4l0.2 -0.5c0.1,-0.1 0,0 0.1,-0.2l0.3 0c0,0.6 -0.3,1.2 -0.3,1.4zm18 -2.7c0.1,-0.1 0.1,0.1 0.1,-0.2l0.1 0c0,0.1 0,0 0,0.1 0,0 0,0 0,0l0.1 0.3c0.1,0.2 0.1,0.2 0.2,0.5 0,0 0,0 0,0 0,0 0,0 0,0l0.2 0.5c0,0.1 0,0.1 0,0.2l-0.3 0c0,0 0,-0.1 0,-0.2l-0.2 -0.5c0,0 0,-0.1 0,-0.1 0,0 -0.1,0 -0.1,0 0,0 0,-0.1 0,-0.1 -0.1,-0.3 0.1,-0.2 -0.1,-0.3l0 -0.2 0 0zm-16.6 -0.5l-0.4 0c0,-0.2 0,-0.1 -0.1,-0.1 -0.3,-0.2 -0.7,-0.1 -0.9,-0.1l-0.3 0.1c-0.3,0.1 -0.5,0.6 -0.5,0.9 0.1,0.3 0.2,0.6 0.4,0.7l0 0.2c-0.2,0.1 0,0 -0.1,0.2l-0.2 0.2c-0.3,0.2 -0.1,-0.1 -0.2,0.1l-0.7 0c0,-0.2 -0.3,-0.3 -0.4,-0.3 -0.2,-0.2 0,-0.1 -0.3,-0.3 -0.1,-0.1 -0.1,0 -0.1,-0.1l-0.4 -0.3c-0.1,-0.1 0,-0.1 -0.2,-0.2l0 -0.9c0.1,-0.1 0.2,0 0.2,-0.4 -0.1,-0.2 -0.1,-0.5 0,-0.7l0.2 -0.3c0.1,-0.1 0,0.1 0.1,-0.1l0.6 0c0.1,0.1 0,0 0.1,0.1l0.3 0.2c0,0 0,0 0,0 0,0 0,0 0,0l0.2 0.1c0.3,0.2 0.7,0.1 1.1,0.1 0.1,0 0.3,0 0.4,0 0,0 0.5,0.2 0.9,0 0.5,-0.2 0.5,-0.6 0.8,-0.8l0.4 -0.2c0,0.2 0,0.3 0,0.4l0.1 0.1c0.1,0.3 0,0.6 0,0.9l-0.8 0.1c-0.2,0.1 -0.2,0.2 -0.2,0.4zm-4.7 -5.2l0 0.2c0.2,0.1 0.1,0.2 0.3,0.3l0 0.5 -0.1 0c-0.1,0 -0.1,0 -0.1,0 -0.2,0.1 -0.3,0.1 -0.4,0.3 0,0 0,0 0,0 0,0 0,0 0,0.1l-0.1 0c0,0 0,0 0,0.1 0,0 -0.1,0.1 -0.1,0.1l-0.1 0.4c0,0.1 0,0.1 0,0.3l-0.2 0c-0.1,-0.2 -0.1,-0.1 -0.2,-0.2l-0.1 0c-0.7,-0.3 -0.7,-0.2 -1.4,-0.1l-0.9 0.5c0,0 -0.1,0 -0.1,0l-0.6 0.3c-0.1,0.1 0.1,0.1 -0.2,0.1 0,0.3 -0.1,0.2 -0.2,0.4l-0.7 1.6c0,0.1 0,0 0,0.3 -0.2,0 -0.1,0.1 -0.3,0.1 -0.1,0 -0.2,-0.1 -0.3,-0.1 -0.2,-0.1 -0.4,-0.3 -0.5,-0.4l0 -0.2 0.1 0c0.3,-0.1 0.3,0 0.4,-0.2l0.1 0c0,-0.1 0,-0.3 0,-0.3 0,-0.3 0.1,-0.2 -0.1,-0.2l-0.3 -0.1c-0.1,0.1 -0.2,0.1 -0.4,0.3l-0.6 0.4c-0.1,0 -0.1,0 -0.2,0 0,0 0,0 0,0l-0.4 0.1c-0.1,0 -0.1,0 -0.2,0.1 -0.3,0 -0.5,0.1 -0.8,0l-0.5 -0.1c-0.3,-0.2 -0.4,-0.6 -0.8,-0.8l-1.1 -0.1c-0.2,0.1 -0.3,0.2 -0.5,0.3 -0.1,0.1 -0.2,0.2 -0.4,0.3 0,0 0,0 0,0 0,0 -0.1,0.1 -0.1,0.1 0,0 0,0 0,0l-0.1 0c-0.1,0.1 -0.1,0.1 -0.1,0.1l-0.3 0.1c-0.3,0.1 -0.8,0.1 -1.1,-0.1l-0.1 0c-0.1,-0.1 -0.3,-0.1 -0.3,-0.3l-0.7 0c0,0.1 -0.1,0.1 -0.3,0.1 -0.1,0 -0.3,0 -0.5,0l-0.4 0c-0.5,0.2 -0.4,0.1 -0.8,0.5l-0.2 0.1c-0.1,0.1 -0.1,0 -0.2,0.1 -0.1,0 -0.1,0.1 -0.3,0.2l0 0.6c0.2,0.1 0.1,0.2 0.2,0.4l0.3 0.4c0.1,0.1 0.2,0.3 0.5,0.5 0.1,0 0.1,0 0.2,0l0.6 0.4c0,0 0.1,0 0.1,0l0.6 0.4c0.1,0.1 0,0 0.1,0.1l0.3 0.1c0,0 0,0 0,0 0.2,0.2 0.1,0.2 0.4,0.2l0 0.6c0.1,0.1 0.1,0.2 0.2,0.3 0.1,0 0.1,0 0.2,0.1l0.7 0.7c0.1,0.1 0.2,0.3 0.4,0.3l0 0.6 -0.5 0.2c-0.1,0 -0.1,0 -0.2,0l-1.5 1.4c0,0 0,0 0,0l-0.3 0.4c-0.1,0.1 -0.1,0.1 -0.1,0.1 -0.1,0.1 -0.2,0.2 -0.3,0.3l0 0.6c-0.4,0 -0.6,0.4 -0.9,0.5 0,0 0,0.1 -0.3,0 0,0 0,-0.1 0,-0.1l-0.1 0.1c-0.1,0.2 -0.2,0.4 -0.4,0.5l-0.1 0.1c-0.3,0.1 -0.3,0.1 -0.5,0l-0.6 -0.4c0,0 -0.1,0 -0.1,0l-0.7 -1.3 -0.6 -0.5c-0.1,0 -0.1,0 -0.1,0 0,0 0,-0.1 0,-0.1l-0.3 0c-0.1,-0.1 -0.3,-0.1 -0.5,0l-0.2 0.1c-0.4,0.2 -1,0.1 -1.5,0.1 -0.6,0 -0.5,0.1 -0.6,-0.1l-0.6 0 -0.3 0.4c0,0 0,0 0,0l-0.1 0.1c0,0.2 0,0 0,0.3l-0.7 -0.1c-0.1,0.2 -0.2,0.2 -0.3,0.4 0,0 0,0 0,0l-0.3 0.6c0,0 0,0 0,0 -0.1,0.2 -0.2,0.4 -0.2,0.6 -0.1,0.3 -0.1,0.7 -0.1,1 0.1,0.4 0.1,0 0.1,0.3 0.1,0.1 0,0.2 0.1,0.3 0,0.2 0,0 0.1,0.2 0,0 0,0 0,0l0 0.1c0.1,0.1 0.1,0 0.1,0.1 0.1,0.2 0.3,0.4 0.5,0.5l0.3 0.1c0,0.1 0,0 0,0.1l0.1 0.1c0,0.2 0.2,0.3 0.4,0.4 0,0 0,0 0,0 0.1,0 0.2,0 0.4,0 0,0 0,0 0,0l1.4 -0.4c0,0 0,0 0,0l0.4 -0.1c0,-0.1 0,-0.1 0,-0.1 0.4,-0.1 0.7,-0.3 0.9,-0.7l0.3 -0.3c0,0.5 0.1,0 0.1,0.4l0.8 -0.1c0,0.4 -0.1,0.2 0,0.4l0.4 0.8c0,0.1 0,0 0,0.1 0,0 0.1,0.1 0.1,0.1 0.1,0 0.1,0 0.2,0.1l0.5 0.3c0,0 0,0 0,0 0,0 0,0 0,0 0,0 0.1,0 0.1,0l0.2 0.2c0.1,0.1 0.1,0.1 0.1,0.1 0,0 0,0 0.1,0 0,0 0,0 0,0 0,0 0,0 0,0.1 0,0 0.1,0 0.1,0 0.4,0.2 0.4,0.2 0.9,0.2l0.4 0c0.1,-0.1 0.2,0 0.4,0.1 0.1,0 0,0 0.1,0l0 0.2c-0.1,0.1 0,0.1 -0.1,0.2 -0.1,0.3 -0.2,0.2 -0.2,0.5l-0.2 0c-0.1,0 -0.1,0.1 -0.1,0.1l-0.3 0.1c-0.4,0.1 -0.2,0.2 -0.6,0.2l0 0.2c0.2,0.1 0.2,0.1 0.3,0.2l0.3 0.2c0.1,0.2 0,0.1 0.2,0.2l-0.1 0.9c0.3,0.1 0.1,0.3 0.3,0.4l0 0.6c-0.2,0 -0.2,0 -0.3,0.1l-1.2 0.9c0,0 0,0 0,0l-0.1 0.3c0,0 0,0 0,0 0,0 0,0.1 -0.1,0.1l0 0.1c0,0 0,0 0,0 0,0 0,0.1 0,0.1 -0.1,0.2 0.1,0 -0.1,0.1l0 1c-0.2,0.1 -0.3,0.2 -0.4,0.3 0,0.1 0,0 -0.1,0.1l-0.6 0c-0.1,0.2 -0.1,0.1 -0.6,0.3l-0.3 0.1c-0.1,0 -0.3,0 -0.4,0l0 -0.6c-0.1,0 -0.1,0 -0.1,-0.1 -0.1,0 -0.1,0 -0.1,-0.1l-0.3 0c-0.2,0.5 -0.2,0.4 -0.2,1.1l-0.6 0c-0.2,0 -0.6,0 -0.9,-0.1 -0.1,0 0,0.1 -0.3,0.1l0 0.4c0.2,0.1 0.1,0.2 0.3,0.3 0,0 0,0 0,0 0,0.1 0,0.1 0,0.1l0.1 0.2c0.1,0.1 0,0.3 0,0.4l-0.1 0.3c-0.1,0.2 -0.1,0.2 -0.1,0.3l-1.2 -0.1c0,-0.2 -0.2,-0.3 -0.3,-0.5l-0.2 0c0,0.1 -0.1,0.1 -0.2,0.1 -0.1,0.2 -0.1,0.2 -0.2,0.2l0 0.3c0.3,0.1 -0.2,-0.1 0,0.1 0.3,0.1 0.3,0.3 0.4,0.5l0.3 0.1c0.1,-0.2 0,-0.1 0.1,-0.1 0.3,-0.1 0.5,0 0.7,0.1l-0.1 1.5c-0.4,0 -0.2,0.1 -0.6,0.1l0 0.2c0.2,0.1 0.1,0.1 0.4,0.1 0,0.3 0,0.3 0.3,0.3 0,0.1 0,0.1 0,0.2l0.1 0.5c0,0.1 0,0.1 0,0.1l0.6 1.1c0.3,0.3 0.7,0.6 0.9,0.9l0.3 1c0,0 0,0 0.1,0 0,0.1 0,0.1 0,0.1l0 0.2c0.2,0 0.3,0.1 0.5,0.1 0.1,0.1 0.4,0.1 0.5,0.1 0,0.1 -0.1,0.2 -0.1,0.3 -0.1,0.2 0.1,0 -0.1,0.2 0,0 0,0 0,0 -0.1,0.1 0,0.1 -0.1,0.1l0 0.2c0.1,0.1 0.2,0.2 0.3,0.3 0.1,0.1 0.1,0 0.1,0.1l0.3 0c0.1,-0.1 0.3,-0.2 0.4,-0.4l0.2 0c0.1,0.2 0,0 0.1,0.1l0.3 0.2c0.2,0.2 0.4,0.4 0.5,0.6 0.1,0.2 0.1,0.4 0.2,0.6 0,0 0.1,0 0.1,0.1l0.8 0.8c0,0 0.1,0 0.2,0 0.1,0.1 -0.1,0.1 0.3,0.1l0 0.4c-0.2,0.1 0,0 -0.1,0.1l-0.2 0.3c0,0 0,0 -0.1,0l-0.2 0.5c0,0 0,0 0,0.1 -0.1,0.3 -0.1,0.5 0,0.7 0.1,0.2 0.1,0.2 0.4,0.3 0.2,0.1 0.1,0.1 0.4,0 0.2,-0.1 0.6,-0.1 0.8,0 0,0 0,0 0,0l0.3 0.2c0,0 0,0 0,0l0.2 0c0.3,0.2 0.4,0.2 0.8,0.2l-0.3 -1 0.4 0c0.1,0.2 0,0.1 0.1,0.2l0.1 0c0.1,0.1 0.3,0.2 0.3,0.3l0.3 1c0.3,0 0.3,-0.3 0.6,-0.3l1.3 0.4c0,0 0.1,0 0.1,0l0.2 0.1c0,0 0.1,0.1 0.1,0.1 0.2,0 0.1,-0.1 0.2,0.1l0.2 0c0.2,-0.6 0,-0.3 0.1,-0.7l0.1 -0.4c0,-0.1 0,-0.1 0,-0.1l0.1 -0.3c0,0 0,-0.1 0,-0.1l0.1 -0.5 0.2 -0.1c0,0 0.1,0 0.1,0l0.2 -0.3c0,0 0,0 0,-0.1 0.1,-0.2 0,-0.1 0.2,-0.1l0 -0.2c-0.5,-0.1 0,-0.1 -0.5,-0.2l0 -0.1c0.4,0 0.2,0.1 0.2,-0.1l0.8 0c0,-0.3 0.1,-0.3 0.1,-0.6l-0.6 0c0.1,-0.3 0.2,-0.1 0.3,-0.3l0.2 0c0.1,0.2 0,-0.1 0.2,0.1 0.2,0.1 0.2,0.3 0.3,0.4l0.2 0.3c0.2,0.2 0.2,0.3 0.2,0.5l0.1 0.5c0,0 0,0.1 0,0.1l0.4 0.4c0.1,0 0,0 0.1,0l0.1 0.1c0.1,0 0.1,0.1 0.2,0.2l0.6 0.4c0,0.1 0.1,0.2 0.2,0.3l0.3 0 0.4 -0.8c0.1,-0.1 0,0 0.1,-0.1 0.1,-0.1 0,0 0.2,-0.1 0.1,0 0.2,-0.1 0.3,-0.2l0.9 0c0,0.2 0,0.1 0.1,0.2 0.1,0.2 0.1,0.3 0.2,0.5l0.1 0c0,0.1 0,0.1 0,0.1 0,0 0,0 0,0l0.1 0.2c0,0 0,0 0,0l0.4 1c0,0 0,0 0,0 0,0 0,0.1 0,0.1l0.2 0.4c0,0 0,0 0,0 0.1,0.2 0,0.6 0.1,0.8l0.2 0.4c0.1,0.1 0.1,0.1 0.2,0.1l0 3c-0.2,0.1 -0.1,0.2 -0.1,0.3l-0.2 0.4c0,0 0,0.1 0,0.1l-0.1 0.3c-0.2,0.3 -0.5,0.5 -0.8,0.7l-0.3 0.2c0,0 0,0 0,0l-0.1 0.1 0 0.5c0.1,0 0.1,0.1 0.1,0.1l0.3 0.6c0,0 0,0 0,0 0,0 0,0 0,0l0.2 0.2c0,0 0,0.1 0,0.1 0.1,0.2 0.3,0.4 0.5,0.5l0.2 0.1c0.4,0.2 0.8,0.4 1.2,0.2 0.1,0 0.1,0 0.1,0l0.1 -0.1c0,0 0,0 0.1,0 0,0 0.1,-0.1 0.1,-0.1l0.5 -0.9c0,0 0,0 0,0 0.1,-0.3 0.4,-1 0.4,-1.2 0,-0.2 0,-0.3 0,-0.5l0.4 -0.9c0,0 0,0 0,0l0.2 -0.4c0,0 0,0 0,0l0.4 -1.3c0,-0.1 0,-0.1 0,-0.2 0,-0.1 0,-0.2 0.1,-0.3l0 -0.8c0.2,0 0.1,-0.1 0.5,-0.2 0,0 0.1,0 0.1,0 0.6,-0.3 0.4,-0.9 0.5,-1.3l0.1 -0.1c0,0 0,0 0,-0.1 0,0 0,0 0,0 0.1,-0.3 0.3,-0.5 0.4,-0.7 0,0 0,-0.1 0.1,-0.1 0,0 0,0 0,0l0.7 -0.6c0,-0.1 0.1,-0.1 0.1,-0.2 0.2,-0.1 0.3,-0.2 0.5,-0.3l0.7 -0.9c0,0 0,0 0,-0.1l0.1 -0.1 0.5 0c0,0.3 0,0.1 0,0.3l-0.3 0.4c-0.1,0.2 0.1,0.1 -0.1,0.2l0 0.1c0.1,0 0.1,-0.1 0.1,0.2l0.4 0c0.1,0.2 0,0 0.2,0.1l0.8 0.4c0.2,0.2 0.4,0.4 0.6,0.6l0.2 0.2c0,0 0.1,0 0.1,0l0.1 0.1c0,0 0,0 0.1,0l0.5 0.2c0,0 0,0 0,0l1 0.3c0,0 0,0 0,0 0,0 0,0 0,0 0.1,0 0.2,0 0.2,0.1l0.2 0c0.1,-0.1 0,0 0.1,-0.1 0.1,0 0.1,0 0.1,0l0 0c0.1,-0.1 0.2,-0.1 0.2,-0.3l0.6 0c0.1,0.2 0.1,0.1 0.4,0.1 0,0 0,0 0,0.1l0.4 0.1c0,0 0.1,0 0.1,0l1.1 0.4c0,0 0.1,0 0.1,0l0.5 0c0,0 0,0 0,0l0.3 -0.1c0.1,-0.1 0.1,-0.1 0.2,-0.1 0,0 0,0 0,0l0.8 -0.2c0.3,-0.1 0.4,-0.2 0.6,-0.4 0,-0.1 0,-0.1 0,-0.1 0.1,-0.1 0,-0.1 0.1,-0.1l0 -0.6c0.2,0 0.2,0 0.3,-0.2l0.6 0c0.1,0.2 0.4,0.1 0.7,0.2 0.2,0 -0.1,-0.1 0.2,0l0 0c0.1,-0.3 0.1,-0.3 0.3,-0.5 0.1,-0.2 0.2,-0.3 0.5,-0.3 0.5,-0.1 1.2,0.1 1.6,0l0 -0.1c0.1,0 0.1,0 0.1,0 0,0 0,0 0,0 0.1,0 0.2,0 0.3,-0.1l0.3 -0.1c0,0 0.1,0 0.1,0l0 0c0.1,0 0.1,0 0.1,0 0,0 0,0 0,0l0.3 -0.1c0.3,-0.1 0.3,0.1 0.6,0.1 0,0.2 0,0.1 0.1,0.2l0.1 0.2c0,0 0.1,0 0.1,0l0.1 0.1c0.1,0.1 -0.1,0.1 0.2,0.1 0,-0.7 -0.1,-1.1 0.1,-1.5l0.1 -0.1c0,0 0,0 0,-0.1 0,0 0,0 0,0l0.3 -0.4c0,0 0,0 0,0l0.4 -0.7c0.1,-0.2 0.1,0 0.1,-0.3l0.5 0c0.1,-0.2 -0.1,-0.1 0.2,-0.1 0.6,-0.1 0.6,0.1 0.9,0.1l0 0.1c0,0 0,0 0,0.1l0.7 0.5c0.1,0 0.1,0 0.2,0.1 0.3,0.1 0.7,0 1,0.1l0.3 0c0.3,-0.1 0.6,0 0.9,-0.1l0.6 -0.2c0,-0.1 0.1,-0.1 0.1,-0.1 0,0 0,0 0,0 0,0 0,0 0.1,0 0.2,-0.2 0.3,-0.3 0.3,-0.6 0.1,-0.2 0.2,-0.2 0.1,-0.5l-0.2 -0.4c0,0 0,-0.1 0,-0.1 0,0 0,-0.1 0,-0.1l-0.4 -0.7c-0.1,-0.2 0.1,-0.1 -0.1,-0.2l0 -0.2c0.2,-0.1 0.3,-0.2 0.4,-0.4 0.2,-0.3 0.1,-1.2 0.1,-1.6l0.3 0.2c0,0.1 0,0 0,0.2 0.4,0 0.4,0.1 0.9,0.1 1.1,0 1.1,0 2,-0.3l0.3 -0.1c0,0 0,0 0,0l0.7 -0.4c0.4,-0.1 0.7,-0.4 0.9,-0.7l0.2 -0.4c0,0 0.1,0 0.1,0l0.2 -0.4c0,0 0,0 0,0l0 -0.2c0.1,0 0.1,0 0.1,0 0,-0.1 0,-0.1 0,-0.1 0,0 0,0 0,0 0.1,-0.3 0,-0.5 -0.2,-0.7 0,0 -0.1,-0.1 -0.1,-0.1l-1.1 -1c0,0 0,0 -0.1,0 0,-0.1 0,-0.1 0,-0.1 -0.2,-0.1 -0.2,-0.4 -0.4,-0.5 -0.2,-0.2 -0.3,-0.3 -0.5,-0.5 -0.2,-0.2 -0.3,-0.4 -0.5,-0.6l-0.3 -0.5c-0.1,-0.2 -0.2,-0.3 -0.4,-0.3 0,0 -0.1,-0.1 -0.1,-0.1l-0.3 -0.1 0 -0.5c0.5,0 0.4,0 0.7,0.2 0,0 0,0 0.1,0 0.1,0.1 0.4,0.1 0.4,0.3l0.3 0c0.1,-0.2 0.4,-0.5 0.6,-0.6l0 -0.4c-0.1,0 -0.2,-0.1 -0.3,-0.2l-0.7 -0.9c0,-0.1 -0.1,-0.2 -0.1,-0.2 0,0 -0.1,0 -0.1,0l-0.4 -0.7c-0.1,-0.1 0,-0.1 -0.1,-0.1l0 -0.8c0.1,-0.1 0.1,-0.2 0.2,-0.3 0,0 0,0 0,0l0.3 -0.4c0,0 0,0 0,0l-0.1 -0.6c0,0 0,0 0,0l-1.1 -1.7c-0.1,-0.1 -0.2,-0.3 -0.3,-0.3l0 -0.4 0.3 -0.1c0,0 0,0 0,0l0.1 -0.1c0,0 0,0 0.1,0l0.4 -0.1 0 -0.2c-0.2,-0.1 -0.1,0 -0.2,-0.2l-0.1 -0.1 -0.4 0c-0.1,0.2 -0.3,0.1 -0.4,0.4l-0.6 0c0,-0.1 -0.1,-0.2 -0.2,-0.3l-0.9 -0.8c0,0 0,0 0,0 -0.2,-0.1 -0.8,-0.2 -1,-0.2 0,-0.1 -0.1,-0.1 -0.1,-0.1 0,0 0,0 0,0l-0.1 0c-0.2,-0.2 -0.5,-0.3 -0.7,-0.5l-0.7 -1.1c-0.1,-0.2 -0.3,-0.3 -0.4,-0.4 -0.1,-0.1 0,0 -0.1,-0.1 -0.1,-0.3 -0.6,-0.9 -0.7,-1l-0.4 -0.6c-0.1,-0.1 -0.1,-0.1 -0.2,-0.2l0 -0.5c0.4,0 0.2,-0.1 0.6,-0.1 0.2,0 0.3,0 0.4,-0.1l0.5 -0.2c0,0 0,-0.1 0,-0.1l0.5 -0.3c0.1,0 0,0 0.1,-0.1 0.1,-0.1 0.1,0 0.2,-0.1 0.2,-0.2 0.3,-0.2 0.4,-0.5 0.1,-0.1 0.1,0 0.1,-0.1l0.6 -1.1c0.1,0 0.1,0 0.1,-0.1 0,0 0,-0.1 0,-0.1l0.1 -0.4c0,0 0,0 0,0l0.1 -0.2c0,-0.1 0,-0.1 0,-0.2 0,-0.1 0,-0.3 0,-0.3 0,-0.1 0,-0.1 0,-0.2l-0.1 -0.1c0,-0.1 0,-0.1 0,-0.1 -0.1,-0.3 -0.2,-0.5 -0.4,-0.7l-0.4 -0.4c-0.1,-0.2 0.1,0.1 0,-0.1l-0.1 -0.1c0,0 0,0 0,0l-0.3 -0.3c-0.3,-0.4 -0.6,-0.3 -0.9,-0.5l-0.2 -0.2c0,0 0,0 0,0 -0.1,0 -0.1,0 -0.1,0l-0.1 -0.1c0,0 0,0 0,0 -0.2,-0.1 -0.4,-0.3 -0.5,-0.5 0,0 0,-0.1 0,-0.1l0 0c0,-0.1 0,-0.1 0,-0.1l-0.3 -0.7c-0.1,-0.4 -0.2,-0.7 -0.3,-1.1 -0.1,-0.6 -0.1,-1 -0.7,-1.3 0,0 0,0 0,0 0,0 0,-0.1 0,-0.1 -0.1,0 -0.1,-0.1 -0.2,-0.1l-0.4 -0.4c-0.3,-0.1 -0.5,-0.2 -0.9,-0.2 0,0 -0.1,0 -0.1,0.1 -0.3,0 0,0 -0.2,0 -0.2,0.1 -0.4,0 -0.7,-0.1 0,0 0,0 0,0 -0.1,0 -0.1,-0.1 -0.3,0 -0.2,0 -0.3,0.3 -0.6,0.4l0 0.6c0.1,0.1 0.1,0 0.1,0.1 0,0 0.1,0.1 0.1,0.1l0.4 0 0 1c-0.2,0.1 -0.2,0.1 -0.4,0.1l-0.9 0.2c0,0 0,0 0,0 0,0 -0.1,0 -0.1,0 -0.1,0.1 0.1,0 -0.1,0.1l0 0.4c0.2,0 0,0.2 0.4,0.2l0 0.4c-0.3,0 -0.2,0 -0.4,0.1l-1.1 0.6c-0.1,0.1 -0.1,0 -0.1,0.1 -0.1,0.3 0.1,0.2 -0.1,0.3l0 0.1c-0.5,0 -0.4,0 -0.8,-0.1 0,0.4 0.2,0.7 0.3,1 0.1,0.1 0,0 0.1,0.1l0 0.2c-0.2,0 -0.2,0 -0.4,0.1 0,0.1 0,0 -0.1,0.1l0 1.6 -0.2 0c0,-0.4 -0.1,0 -0.1,-0.4 -0.1,-0.3 0,-0.6 -0.1,-0.9 -0.1,-0.1 -0.2,-0.2 -0.2,-0.3l-0.6 0c-0.1,0.2 0,0.1 -0.3,0.1 0,0 0,0 0,0 -0.1,0 -0.1,0 -0.1,0l-0.2 0.1c-0.2,0.1 -0.4,0.1 -0.5,0.3l-0.4 0c0,-0.1 0,0 -0.1,-0.1l0 -0.3 0.2 -0.2c0.1,0 0.1,0 0.2,-0.1 0,-0.1 0,-0.1 0.1,-0.1l1.6 -1.1c0.1,-0.1 0,0 0.1,-0.1 0,0 0.1,-0.1 0.1,-0.1l0.3 -0.2c0.2,-0.1 0.1,-0.1 0.1,-0.2 0.2,-0.2 0.3,-0.4 0.5,-0.5l0.9 -0.5c0.1,-0.1 0.1,-0.1 0.2,-0.1l0 -0.3c-0.1,0 -0.1,-0.1 -0.2,-0.2l0 -0.3c0.2,-0.1 0.4,-0.3 0.5,-0.4l0.6 -0.8c0.1,-0.1 0.1,-0.2 0.1,-0.3 0,0 0,-0.1 0,-0.1l0.1 -0.1c0,-0.2 0,-0.4 0,-0.7 -0.2,0 0,0 -0.2,0l-0.2 -0.1c-0.2,-0.2 -0.6,-0.2 -0.7,-0.3 -0.5,-0.1 -1.6,0.1 -2,0 0,0 0,0 0,-0.1l-0.1 0c-0.1,0 -0.1,0 -0.2,0l-0.4 -0.1c-0.2,0 -0.4,0 -0.4,0 -0.1,0 -0.1,0 -0.1,0l-0.2 0.1c-0.4,0.2 -0.9,0.1 -1.2,0l-0.9 -0.5c0,0 0,0 0,0 0,0 0,0 -0.1,0 -0.3,-0.1 -0.7,-0.1 -1,0 -0.1,0 -0.1,0 -0.1,0l-0.8 0.3c0,0 0,0 0,0l-1.3 0.7c-0.2,0.1 -0.4,0.1 -0.5,0.2l-0.2 0.2c-0.1,0.2 0.1,-0.1 0,0.1l0 0.1c0,0 -0.1,0 -0.1,0 -0.1,0.2 0,0 -0.1,0.2l-0.1 0c0,-0.2 0,-0.2 0,-0.3 -0.1,-0.1 -0.3,-0.2 -0.4,-0.3 -0.1,0 0,-0.1 -0.3,-0.1l0 -0.4c0.2,0 0.2,-0.2 0.3,-0.3l0 -0.1c0.1,-0.3 0.3,-1 0.2,-1.3l-0.2 -0.4c0,0 0,0 0,0 0,0 0,0 0,0l-0.1 -0.5c0,0 -0.1,0 -0.1,0 -0.2,-0.4 -0.2,-0.5 -0.6,-0.9 0,0 0,0 0,-0.1 -0.2,-0.2 -0.4,-0.2 -0.7,-0.3 0,0 -0.1,0 -0.1,0 0,-0.1 0,-0.1 -0.1,-0.1 -0.1,0 -0.2,0 -0.4,0 -0.2,0 -0.3,-0.2 -0.7,0 -0.1,0 0.1,0 -0.2,0l-0.6 0.1c0,0 0,0 -0.1,0 0,0 0,0 -0.1,0l-0.6 0.2c0,0.1 -0.1,0.1 -0.1,0.1 0,0 -0.1,0 -0.1,0l-0.3 0.1c-0.4,0.2 -0.8,0.2 -1.1,0.4 -0.2,0.1 0,0 -0.2,0.1l0 0z"/>
 </g>
</svg>
